<svg width="65" height="65" fill="none" xmlns="http://www.w3.org/2000/svg"><circle cx="32.5" cy="32.5" r="32.5" fill="#DC7000" fill-opacity=".09"/><g clip-path="url(#a)" fill="#DC7000"><path d="M38.744 17.627H26.256c-1.204 0-2.184.98-2.184 2.184v25.377c0 1.205.98 2.185 2.184 2.185h12.488c1.204 0 2.184-.98 2.184-2.184V19.811c0-1.204-.98-2.184-2.184-2.184Zm-13.68 3.966h14.872v18.84H25.064v-18.84Zm1.192-2.974h12.488c.657 0 1.192.535 1.192 1.192v.79H25.064v-.79c0-.657.535-1.192 1.192-1.192ZM38.744 46.38H26.256a1.194 1.194 0 0 1-1.192-1.192v-3.765h14.872v3.765c0 .657-.535 1.192-1.192 1.192Z"/><path d="M32.5 41.92a1.985 1.985 0 0 0-1.983 1.983c0 1.093.89 1.983 1.983 1.983 1.094 0 1.983-.89 1.983-1.983 0-1.094-.89-1.984-1.983-1.984Zm0 2.974a.993.993 0 0 1 0-1.983.993.993 0 0 1 0 1.983Zm-1.983-24.788H32.5a.495.495 0 1 0 0-.992h-1.983a.495.495 0 1 0 0 .992Zm3.47 0h.496a.495.495 0 1 0 0-.992h-.496a.495.495 0 1 0 0 .992Zm11.706-.214a.495.495 0 1 0-.7.701 4.756 4.756 0 0 1 0 6.719.495.495 0 1 0 .7.7 5.749 5.749 0 0 0 0-8.12Z"/><path d="M43.606 21.02a.495.495 0 1 0-.701.701c.613.614.95 1.43.95 2.3a3.23 3.23 0 0 1-.95 2.3.495.495 0 1 0 .7.7 4.21 4.21 0 0 0 1.242-3c0-1.134-.44-2.2-1.241-3Zm-23.598-.427a.495.495 0 1 0-.701-.7 5.749 5.749 0 0 0 0 8.12.494.494 0 0 0 .7 0 .495.495 0 0 0 0-.701 4.755 4.755 0 0 1 0-6.719Z"/><path d="M22.095 20.884a.495.495 0 0 0-.7 0c-.801.8-1.242 1.866-1.242 3s.44 2.2 1.241 3.001a.494.494 0 0 0 .701 0 .495.495 0 0 0 0-.701 3.231 3.231 0 0 1-.95-2.3c0-.87.337-1.686.95-2.3a.496.496 0 0 0 0-.7Z"/></g><defs><clipPath id="a"><path fill="#fff" transform="translate(17.627 17.627)" d="M0 0h29.746v29.746H0z"/></clipPath></defs></svg>