<svg width="12" height="13" fill="none" xmlns="http://www.w3.org/2000/svg"><g clip-path="url(#a)"><path d="M.742 8.6a.687.687 0 0 0 .137.01h7.813l-.17.092a1.609 1.609 0 0 0-.448.367l-2.19 2.53c-.29.319-.338.83-.116 1.213.259.408.755.497 1.108.198a.83.83 0 0 0 .08-.079l3.962-4.576c.31-.358.31-.937.001-1.295L6.957 2.482a.72.72 0 0 0-1.12.001.89.89 0 0 0-.069.09c-.222.383-.173.895.115 1.213L8.07 6.322c.116.135.25.248.396.335l.238.123H.924c-.406-.017-.76.31-.837.77-.07.498.223.968.655 1.05Z" fill="#DC7000"/></g><defs><clipPath id="a"><path fill="#fff" transform="rotate(-180 5.575 6.44)" d="M0 0h11.074v12.793H0z"/></clipPath></defs></svg>